<svg width="1024" height="1024" viewBox="0 0 1024 1024" fill="none" xmlns="http://www.w3.org/2000/svg">
<g clip-path="url(#clip0_22_2)">
<rect width="1024" height="1024" fill="#0C0C0C"/>
<path d="M511.727 247.684C467.781 247.684 445.809 269.656 445.809 313.602V526.736C495.32 542.557 535.604 570.389 566.658 610.232C570.467 614.92 574.129 619.461 577.645 623.855V313.602C577.645 269.656 555.672 247.684 511.727 247.684ZM445.809 665.164C445.809 709.109 467.781 731.082 511.727 731.082C536.629 731.082 554.354 724.051 564.9 709.988C555.818 700.027 546.883 688.748 538.094 676.15C513.191 640.994 482.43 615.213 445.809 598.807V665.164ZM379.891 313.602C379.891 225.711 423.836 181.766 511.727 181.766C599.617 181.766 643.562 225.711 643.562 313.602V665.164C643.562 673.953 643.123 682.156 642.244 689.773C659.529 702.664 674.617 709.109 687.508 709.109V775.027C663.777 775.027 640.779 768.436 618.514 755.252C596.834 783.084 561.238 797 511.727 797C423.836 797 379.891 753.055 379.891 665.164V580.35C365.828 578.299 351.18 577.273 335.945 577.273V511.355C351.18 511.355 365.828 512.088 379.891 513.553V313.602Z" fill="#DADADA"/>
</g>
<defs>
<clipPath id="clip0_22_2">
<rect width="1024" height="1024" fill="white"/>
</clipPath>
</defs>
</svg>
