<svg width="512" height="514" viewBox="0 0 512 514" fill="none" xmlns="http://www.w3.org/2000/svg">
<rect y="2.99414" width="511" height="511" fill="white"/>
<path d="M255.5 125.878C233.57 125.878 222.605 136.843 222.605 158.773V265.132C247.313 273.027 267.415 286.916 282.912 306.799C284.813 309.138 286.64 311.404 288.395 313.597V158.773C288.395 136.843 277.43 125.878 255.5 125.878ZM222.605 334.211C222.605 356.141 233.57 367.105 255.5 367.105C267.927 367.105 276.772 363.597 282.035 356.579C277.503 351.608 273.044 345.98 268.658 339.693C256.231 322.149 240.88 309.284 222.605 301.097V334.211ZM189.711 158.773C189.711 114.913 211.641 92.9836 255.5 92.9836C299.359 92.9836 321.289 114.913 321.289 158.773V334.211C321.289 338.597 321.07 342.69 320.631 346.491C329.257 352.924 336.786 356.141 343.219 356.141V389.035C331.377 389.035 319.9 385.746 308.789 379.167C297.971 393.056 280.208 400 255.5 400C211.641 400 189.711 378.07 189.711 334.211V291.886C182.693 290.863 175.383 290.351 167.781 290.351V257.457C175.383 257.457 182.693 257.822 189.711 258.553V158.773Z" fill="#C72938"/>
</svg>
